<svg xmlns="http://www.w3.org/2000/svg" width="16.017" height="16" viewBox="0 0 16.017 16">
  <g id="pencil" transform="translate(0 -0.246)">
    <path id="Path_413" data-name="Path 413" d="M9.891,82.473,1.078,91.286a.351.351,0,0,0-.092.161L.01,95.368a.347.347,0,0,0,.336.431.345.345,0,0,0,.084-.01l3.921-.977a.347.347,0,0,0,.161-.091l8.813-8.813Zm0,0" transform="translate(0 -79.552)" fill="#988149"/>
    <path id="Path_414" data-name="Path 414" d="M338.964,1.719l-.981-.981a1.776,1.776,0,0,0-2.453,0l-1.2,1.2,3.434,3.434,1.2-1.2a1.735,1.735,0,0,0,0-2.453Zm0,0" transform="translate(-323.456 0)" fill="#988149"/>
  </g>
</svg>
